<svg width="86" height="176" viewBox="0 0 86 176" xmlns="http://www.w3.org/2000/svg"><title>apple</title><path d="M3.664 115.613c-.09-3.085-.125-6.168-.09-9.249.14-12.543 2.038-24.483 6.072-36.37 2.384-7.025 6.03-14.038 7.89-21.297h50.171l.147.45c1.432 4.285 3.318 8.42 5.02 12.598 4.68 11.487 8.417 23.185 9.206 35.637.384 6.068.396 12.154.156 18.233l-78.572-.002zm82.189-13.562c.789 24.37-3.11 48.95-8.384 72.676-.496 2.232-3.918 1.282-3.423-.944 2.727-12.267 4.968-24.658 6.46-37.138.028-.233.051-.467.078-.699-12.995-1.631-30.476 8.281-35.697 12.28v22.409c0 2.757-4.278 2.752-4.278 0v-23.46c-6.729-4.602-23.41-13.331-35.509-11.03 1.38 12.67 3.604 25.265 6.35 37.638.495 2.23-2.928 3.173-3.422.944a361.116 361.116 0 0 1-6.133-36.334C.378 125.407-.445 112.266.249 99.196c.656-12.342 3.632-24.041 7.916-35.598 1.643-4.431 3.469-8.799 5.022-13.263 1.247-3.584 2.387-6.553.648-10.13-2.386-4.906-3.85-8.932-3.013-14.49.304-2.026.878-4.074 1.81-5.923.462-2.218 1.287-3.732 2.528-4.776a1.705 1.705 0 0 1-.277-.96V1.714c0-2.287 3.55-2.284 3.55 0v11.701c1.718-.466 3.822-.678 6.362-.823 4.154-.237 10.967 1.932 14.018 5.291a5.199 5.199 0 0 0 7.724 0c3.05-3.359 10.01-6.017 14.164-5.781 2.68.153 4.953.427 6.827 1.012v-11.4c0-2.287 3.55-2.284 3.55 0v12.342c0 .32-.075.591-.194.822 2.058 1.756 3.141 4.611 3.259 9.318.002.109-.007.214-.006.321.243 1.018.279 2.147-.006 3.464-1.036 4.802-2.967 9.453-3.818 14.296a6.919 6.919 0 0 0-.079.653v1.208c.172 2.412 1.3 4.888 2.132 7.039 1.79 4.629 3.801 9.168 5.595 13.796 4.664 12.036 7.473 24.153 7.892 37.078zm-44.768-8.96c2.803 0 2.798 4.347 0 4.347-2.802 0-2.797-4.347 0-4.347z" fill="#4A4A4A" fill-rule="evenodd"/></svg>