<svg width="92" height="176" viewBox="0 0 92 176" xmlns="http://www.w3.org/2000/svg"><title>hourglass</title><path d="M7.112 115.878c1.715-6.804 3.935-13.474 6.497-20.003 3.103-7.91 6.925-15.338 8.49-23.766 1.213-6.54 1.533-13.277.786-19.89-.09-.785-.181-1.617-.287-2.464h46.447c-.967 5.772-1.12 11.698-.525 17.514.796 7.797 3.133 14.863 6.258 22.003 3.299 7.538 6.182 15.275 8.441 23.19.324 1.134.63 2.273.926 3.415H7.112zm81 1.262c2.67 11.012 3.959 22.393 3.15 33.716-.579 8.092-2.286 15.98-4.053 23.877-.498 2.222-3.904 1.276-3.409-.94 1.958-8.748 3.798-17.46 4.115-26.453.131-3.745.031-7.48-.268-11.198-13.775-1.688-33.173 7.726-39.621 11.9v22.616c0 2.746-4.26 2.741-4.26 0V147.94c-6.689-4.276-26.287-13.71-39.974-11.742a98.194 98.194 0 0 0 .045 14.549c.617 7.813 2.35 15.418 4.058 23.046.497 2.22-2.91 3.158-3.407.94-2.04-9.101-4-18.173-4.4-27.526-.514-11.97 1.266-23.951 4.456-35.47 2.086-7.539 4.773-14.9 7.822-22.097 3.538-8.354 6.565-16.304 7.211-25.448.438-6.191.226-12.735-1.523-18.73a9.084 9.084 0 0 0-.908-2.124c-4.137-2.628-7.166-6.581-8.35-11.182-.743-1.608-1.296-3.3-1.588-5.072a18.522 18.522 0 0 1 .7-8.858c1.078-3.227 2.863-5.137 4.943-7.666.19-.232.399-.386.615-.48V1.707c0-2.278 3.534-2.274 3.534 0v7.15c1.749-.926 3.8-1.497 6.193-1.607 5.111-.235 14.66 4.098 18.413 7.442 2.56 2.282 6.941 2.282 9.502 0 3.752-3.344 13.72-7.687 18.83-7.451 2.328.107 4.312.65 5.999 1.53V1.708c0-2.278 3.534-2.274 3.534 0v9.357c0 .082-.014.155-.022.232 2.233 2.727 4.044 5.106 4.854 8.799a18.63 18.63 0 0 1 .162 7.104c0 .035.002.07.004.104.22 7.185-3.985 13.488-10.319 16.858-.625 1.354-.992 2.842-1.351 4.603-1.474 7.209-1.463 14.871-.264 22.115 1.435 8.668 5.35 16.313 8.542 24.402 2.81 7.124 5.231 14.413 7.036 21.86zM44.24 93.454c2.79 0 2.785 4.328 0 4.328-2.79 0-2.785-4.328 0-4.328z" fill="#4A4A4A" fill-rule="evenodd"/></svg>