<svg width="85" height="176" viewBox="0 0 85 176" xmlns="http://www.w3.org/2000/svg"><title>inverted-triangle</title><path d="M72.21 97.982c-.08 6.08.008 12.15.107 18.219H12.913c.06-4.25.113-8.502.115-12.76.004-13.398-.675-26.806-1.757-40.157a397.243 397.243 0 0 0-1.266-13.2h65.493a310.565 310.565 0 0 0-.866 7.447 441.84 441.84 0 0 0-2.421 40.451m11.108-76.673c1.27 2.975 1.897 6.195 1.614 9.434-.348 3.986-1.954 7.46-4.269 10.644-.063.088-.144.22-.208.323-.059.2-.166.526-.18.612-.194 1.173-.472 2.334-.662 3.51-.744 4.61-1.248 9.261-1.711 13.907-1.387 13.89-2.178 27.866-2.226 41.829-.054 16.03.69 31.965-.13 48.001-.422 8.258-.98 16.53-1.91 24.747-.251 2.227-3.75 2.246-3.496 0 1.104-9.773 1.722-19.622 2.127-29.446.146-3.567.206-7.13.222-10.691-12.027-1.547-23.432 8.79-27.707 13.573v22.976c0 2.733-4.214 2.728-4.214 0v-23.727c-5.081-4.729-16.473-13.028-27.838-11.518.01 4.637.076 9.276.27 13.924.346 8.308.814 16.628 1.594 24.91.213 2.256-3.286 2.233-3.497 0-.996-10.577-1.533-21.214-1.84-31.83-.447-15.5.496-30.968.2-46.463C9.21 83.08 8.452 70.136 7.248 57.248c-.397-4.26-.797-8.539-1.464-12.768-.138-.875-.233-1.837-.506-2.698.02.232-.574-.735-.938-1.2C1.785 37.32.171 33.288.012 29.117c-.108-2.826.517-5.648 1.642-8.228 1.602-3.676 4.239-6.064 6.6-9.163.235-.31.523-.505.828-.619V1.7c0-2.267 3.497-2.264 3.497 0v9.22c1.528-.565 3.24-.917 5.16-1.002 5.465-.239 15.673 4.166 19.686 7.566 2.737 2.32 7.42 2.32 10.158 0 4.012-3.4 14.67-7.814 20.133-7.575 2.366.104 4.397.612 6.142 1.431.157-.103.329-.185.512-.244V1.7c0-2.267 3.497-2.264 3.497 0v11.755c2.052 2.473 4.109 4.707 5.452 7.855zM41.038 93.881c2.76 0 2.755 4.308 0 4.308-2.761 0-2.756-4.308 0-4.308z" fill="#4A4A4A" fill-rule="evenodd"/></svg>