<svg width="105" height="176" viewBox="0 0 105 176" xmlns="http://www.w3.org/2000/svg"><title>pear</title><path d="M5.924 116.375c1.343-4.977 3.155-9.83 5.303-14.51 3.471-7.563 8.281-14.375 11.82-21.885 3.776-8.016 7.263-17.845 7.866-27.257H75.37c.092.682.188 1.346.275 1.98.95 6.859 2.797 13.602 5.277 20.062 2.929 7.627 7.249 14.488 10.788 21.82 3.064 6.346 5.619 12.961 7.373 19.792l-93.16-.002zm98.017 5.921c1.698 10.014 1.339 20.127-.97 30.012-1.774 7.6-4.82 14.835-6.557 22.437-.503 2.2-3.884 1.264-3.382-.932 1.883-8.236 5.241-16.048 6.98-24.334.882-4.201 1.36-8.438 1.464-12.68-14.18-2.22-38.946 7.622-46.36 11.69v22.215c0 2.723-4.227 2.718-4.227 0V148.35c-7.764-4.422-33.218-15.32-47.382-13.159.11 5.797.989 11.57 2.553 17.235 1.991 7.212 5.142 14.089 6.816 21.386.505 2.2-2.876 3.129-3.38.932-2.012-8.764-5.975-16.942-7.901-25.749-2.297-10.5-2.089-21.26.466-31.698 1.734-7.08 4.447-13.91 7.682-20.433 3.943-7.952 9.113-15.186 12.348-23.49 2.545-6.533 4.394-13.496 5.073-20.486.32-3.293.847-7.172-.99-10.062-2.319-3.65-3.982-7.378-4.393-11.75-.326-3.473.158-7 1.297-10.292 1.181-3.417 2.861-5.629 5-8.244-.001-.04-.01-.074-.01-.115V2.177c0-2.259 3.506-2.255 3.506 0v9.559c1.27-.524 2.685-.848 4.252-.937 4.104-.233 10.834 1.908 13.848 5.225a5.135 5.135 0 0 0 7.629 0c3.013-3.317 9.888-5.942 13.992-5.709.74.043 1.442.144 2.113.293V1.693c0-2.259 3.507-2.255 3.507 0v9.871c.143.093.282.205.412.362.298.362.6.7.9 1.032 2.792 2.329 4.53 6.007 5.338 10.354.73 3.108.862 6.342.34 9.494-.411 2.49-1.242 4.899-2.4 7.14-.67 1.298-1.77 2.433-2.383 3.734-1.743 3.696-.214 9.91.48 13.648a91.93 91.93 0 0 0 6.844 21.589c3.577 7.769 8.15 14.98 11.428 22.91 2.723 6.589 4.874 13.433 6.067 20.469zM51.36 94.136c2.768 0 2.763 4.293 0 4.293-2.768 0-2.763-4.293 0-4.293z" fill="#4A4A4A" fill-rule="evenodd"/></svg>