<svg width="72" height="176" viewBox="0 0 72 176" xmlns="http://www.w3.org/2000/svg"><title>straight</title><path d="M4.357 115.907c.804-7.125 1.933-14.24 2.21-21.383.304-7.857-.202-15.827-.301-23.687l-.26-20.517h59.585l.01 17.551c.004 8.327-.287 16.713.014 25.036.29 8.007 1.113 16.035 1.854 24.04l-63.112-1.04zm67.548 10.908c.25 4.439-.066 8.951-.117 13.396-.132 11.36-.209 22.72-.105 34.082.02 2.278-3.573 2.274-3.593 0-.114-12.493-.014-24.988.146-37.48.005-.4.012-.798.018-1.197-14.354-1.543-26.469 6.733-30.703 10.525v24.545c0 2.746-4.33 2.742-4.33 0v-25.653c-5.13-4.08-16.436-10.792-29.636-9.212.01.878.017 1.756.018 2.63.007 11.95.147 23.9.57 35.842.08 2.278-3.513 2.268-3.593 0-.472-13.31-.598-26.63-.566-39.945.011-4.485-.134-8.985.315-13.45.903-8.975 2.553-18.174 2.635-27.192.083-9.325-.238-18.672-.356-27.997L1.796 1.708c-.029-2.28 3.564-2.274 3.594 0l.23 18.212c1.975-3.475 5.192-5.918 10.088-6.14 4.342-.197 12.455 3.427 15.643 6.223 2.176 1.908 5.898 1.908 8.074 0 3.189-2.796 11.658-6.428 16-6.23 5.126.232 8.301 2.9 10.15 6.64l-.011-18.705c-.002-2.279 3.591-2.275 3.593 0l.015 28.069.025 43.045c.004 6.807-.295 13.691.034 20.493.542 11.183 2.05 22.32 2.674 33.5zM34.795 93.44c2.835 0 2.831 4.33 0 4.33-2.837 0-2.832-4.33 0-4.33z" fill="#4A4A4A" fill-rule="evenodd"/></svg>