{
    "accessors" : [
        {
            "bufferView" : 0, 
            "componentType" : 5123, 
            "count" : 117936, 
            "max" : [
                20746
            ], 
            "min" : [
                0
            ], 
            "type" : "SCALAR"
        }, 
        {
            "bufferView" : 1, 
            "componentType" : 5126, 
            "count" : 20747, 
            "max" : [
                0.5109481811523438, 
                0.1233070120215416, 
                -0.0
            ], 
            "min" : [
                -0.5148566961288452, 
                -0.14381849765777588, 
                -1.6870907545089722
            ], 
            "type" : "VEC3"
        }, 
        {
            "bufferView" : 2, 
            "componentType" : 5126, 
            "count" : 20747, 
            "max" : [
                0.9998779296875, 
                0.999969482421875, 
                0.999969482421875
            ], 
            "min" : [
                -0.999969482421875, 
                -0.99993896484375, 
                -0.9988402724266052
            ], 
            "type" : "VEC3"
        }, 
        {
            "bufferView" : 3, 
            "componentType" : 5126, 
            "count" : 20747, 
            "max" : [
                0.9999960660934448, 
                0.9998708963394165, 
                0.9969311952590942, 
                1.0
            ], 
            "min" : [
                -0.9998993277549744, 
                -0.9999970197677612, 
                -0.9986883997917175, 
                1.0
            ], 
            "type" : "VEC4"
        }, 
        {
            "bufferView" : 4, 
            "componentType" : 5126, 
            "count" : 20747, 
            "max" : [
                0.9979439973831177, 
                0.9930569999851286
            ], 
            "min" : [
                0.002056000055745244, 
                0.00650399923324585
            ], 
            "type" : "VEC2"
        }
    ], 
    "asset" : {
        "generator" : "Khronos Blender glTF 2.0 exporter", 
        "version" : "2.0"
    }, 
    "bufferViews" : [
        {
            "buffer" : 0, 
            "byteLength" : 235872, 
            "byteOffset" : 0, 
            "target" : 34963
        }, 
        {
            "buffer" : 0, 
            "byteLength" : 248964, 
            "byteOffset" : 235872, 
            "target" : 34962
        }, 
        {
            "buffer" : 0, 
            "byteLength" : 248964, 
            "byteOffset" : 484836, 
            "target" : 34962
        }, 
        {
            "buffer" : 0, 
            "byteLength" : 331952, 
            "byteOffset" : 733800, 
            "target" : 34962
        }, 
        {
            "buffer" : 0, 
            "byteLength" : 165976, 
            "byteOffset" : 1065752, 
            "target" : 34962
        }
    ], 
    "buffers" : [
        {
            "byteLength" : 1231728, 
            "uri" : "TS_bodylab.bin"
        }
    ], 
    "images" : [
        {
            "uri" : "material_0_baseColor.png"
        }
    ], 
    "materials" : [
        {
            "name" : "Material.001", 
            "pbrMetallicRoughness" : {
                "baseColorFactor" : [
                    0.6400000190734865, 
                    0.6400000190734865, 
                    0.6400000190734865, 
                    1.0
                ], 
                "baseColorTexture" : {
                    "index" : 0
                }, 
                "metallicFactor" : 0.0
            }
        }
    ], 
    "meshes" : [
        {
            "name" : "female001_textured", 
            "primitives" : [
                {
                    "attributes" : {
                        "NORMAL" : 2, 
                        "POSITION" : 1, 
                        "TANGENT" : 3, 
                        "TEXCOORD_0" : 4
                    }, 
                    "indices" : 0, 
                    "material" : 0
                }
            ]
        }
    ], 
    "nodes" : [
        {
            "mesh" : 0, 
            "name" : "glb_mesh", 
            "rotation" : [
                0.7071068286895752, 
                0.0, 
                -0.0, 
                0.7071067094802856
            ]
        }
    ], 
    "samplers" : [
        {}
    ], 
    "scene" : 0, 
    "scenes" : [
        {
            "name" : "Scene", 
            "nodes" : [
                0
            ]
        }
    ], 
    "textures" : [
        {
            "sampler" : 0, 
            "source" : 0
        }
    ]
}
