<svg width="95" height="176" viewBox="0 0 95 176" xmlns="http://www.w3.org/2000/svg"><title>unsure</title><g fill="#4A4A4A" fill-rule="evenodd"><path d="M17.576 1.028c-.102.072-2.517 1.818-4.968 5.23a1.5 1.5 0 0 0 1.213 2.372c.466 0 .925-.216 1.217-.623 2.119-2.95 4.211-4.494 4.278-4.542a1.498 1.498 0 0 0-1.74-2.437M5.869 103.987c-.8-.2-1.613.291-1.811 1.095a130.945 130.945 0 0 0-1.483 6.655 1.496 1.496 0 1 0 2.938.566c.366-1.901.84-4.028 1.45-6.503a1.498 1.498 0 0 0-1.094-1.813M12.281 77.804a1.495 1.495 0 0 0-1.76 1.174c-.42 2.094-.889 4.231-1.433 6.534a1.499 1.499 0 0 0 1.458 1.842c.677 0 1.29-.464 1.454-1.153a198.316 198.316 0 0 0 1.453-6.634 1.498 1.498 0 0 0-1.172-1.763M14.632 51a1.498 1.498 0 0 0-1.475 1.52 111.627 111.627 0 0 1-.108 6.648 1.497 1.497 0 1 0 2.988.136 115.482 115.482 0 0 0 .112-6.827A1.51 1.51 0 0 0 14.632 51M14.192 64.466a1.49 1.49 0 0 0-1.642 1.335c-.223 2.153-.51 4.376-.858 6.607a1.5 1.5 0 0 0 1.481 1.728c.724 0 1.362-.528 1.476-1.267.355-2.283.65-4.556.877-6.759a1.497 1.497 0 0 0-1.334-1.644M3.181 117.19a1.5 1.5 0 0 0-1.677 1.293c-.28 2.145-.523 4.422-.725 6.766a1.496 1.496 0 1 0 2.98.256c.199-2.3.437-4.532.713-6.635a1.499 1.499 0 0 0-1.29-1.68M9.293 90.948a1.493 1.493 0 0 0-1.824 1.073c-.463 1.781-.925 3.521-1.376 5.221L5.75 98.53a1.496 1.496 0 1 0 2.89.77l.343-1.287a932.64 932.64 0 0 0 1.38-5.24 1.497 1.497 0 0 0-1.071-1.825M12.134 39.354c.035.176.064.346.085.508.27 1.995.485 4.019.637 6.017a1.497 1.497 0 1 0 2.983-.229 107.48 107.48 0 0 0-.655-6.19c-.03-.216-.067-.443-.113-.68a1.497 1.497 0 0 0-2.937.573M12.695 31.473c-.74-1.975-1.506-4.016-1.924-5.583a1.496 1.496 0 1 0-2.89.776c.456 1.706 1.246 3.818 2.012 5.86l.243.65a1.497 1.497 0 0 0 1.926.877 1.498 1.498 0 0 0 .876-1.928l-.243-.652zM8.9 21.07a1.494 1.494 0 0 0 1.648-1.328c.23-2.123.727-4.195 1.478-6.159a1.497 1.497 0 0 0-2.794-1.072 27.55 27.55 0 0 0-1.658 6.91A1.496 1.496 0 0 0 8.9 21.07M2.234 167.296a1.497 1.497 0 0 0 1.402-1.587 351.703 351.703 0 0 1-.346-6.706c-.034-.827-.738-1.451-1.557-1.434A1.496 1.496 0 0 0 .3 159.13c.095 2.26.212 4.535.349 6.763a1.496 1.496 0 0 0 1.584 1.404M1.532 140.339h.035c.81 0 1.477-.647 1.495-1.463.052-2.285.135-4.538.245-6.696a1.496 1.496 0 0 0-1.417-1.572 1.504 1.504 0 0 0-1.57 1.419 238.048 238.048 0 0 0-.249 6.78 1.496 1.496 0 0 0 1.46 1.532M2.5 171.037a1.497 1.497 0 0 0-1.366 1.617c.1 1.204.166 1.862.166 1.862a1.496 1.496 0 1 0 2.977-.294c0-.008-.063-.65-.161-1.818a1.495 1.495 0 0 0-1.616-1.367M1.576 153.824h.035a1.497 1.497 0 0 0 1.461-1.532c-.05-2.281-.077-4.539-.08-6.711 0-.826-.67-1.496-1.496-1.496h-.002c-.826 0-1.494.673-1.494 1.5.003 2.193.03 4.472.082 6.774a1.496 1.496 0 0 0 1.494 1.465M47.311 91.023c0-.378-.133-.7-.397-.965a1.31 1.31 0 0 0-.964-.398c-.378 0-.699.132-.963.398a1.31 1.31 0 0 0-.4.965c0 .378.133.7.4.964.264.266.585.399.963.399.377 0 .698-.133.964-.399.264-.265.397-.586.397-.964M49.22 78.418a4.856 4.856 0 0 0-1.478-1.009 4.371 4.371 0 0 0-1.792-.374 4.47 4.47 0 0 0-1.794.365 4.695 4.695 0 0 0-1.476.998 4.766 4.766 0 0 0-1.002 1.479 4.456 4.456 0 0 0-.369 1.804c0 .288.094.528.283.72a.96.96 0 0 0 .714.289c.14 0 .272-.026.393-.076a.94.94 0 0 0 .316-.218c.09-.092.162-.199.217-.32a.966.966 0 0 0 .081-.395 2.589 2.589 0 0 1 .772-1.872c.24-.236.52-.423.839-.561a2.58 2.58 0 0 1 1.026-.206 2.5 2.5 0 0 1 1.016.21 2.734 2.734 0 0 1 1.41 1.412c.14.32.21.66.21 1.017 0 .718-.255 1.341-.767 1.872l-1.505 1.402c-.914.916-1.37 1.95-1.37 3.101 0 .288.095.527.286.715a.985.985 0 0 0 .72.283.967.967 0 0 0 .997-.998c0-.607.256-1.168.767-1.68l1.506-1.391c.914-.935 1.37-2.036 1.37-3.304 0-.626-.123-1.221-.368-1.785a4.783 4.783 0 0 0-1.002-1.478M91.144 113.49a1.497 1.497 0 0 0 1.187-1.753c-.375-1.952-.86-4.13-1.483-6.655a1.495 1.495 0 1 0-2.904.718c.61 2.474 1.083 4.602 1.449 6.503a1.497 1.497 0 0 0 1.751 1.188M93.173 157.569c-.79-.024-1.523.607-1.557 1.433-.095 2.241-.21 4.499-.346 6.707a1.497 1.497 0 1 0 2.986.183c.137-2.227.254-4.503.349-6.764a1.496 1.496 0 0 0-1.432-1.559M92.406 171.037a1.495 1.495 0 0 0-1.616 1.367c-.098 1.169-.16 1.81-.161 1.818a1.497 1.497 0 1 0 2.977.294s.065-.658.166-1.862a1.497 1.497 0 0 0-1.366-1.617M92.635 126.875a1.496 1.496 0 0 0 1.492-1.626c-.201-2.344-.446-4.62-.726-6.767a1.5 1.5 0 0 0-1.677-1.291c-.82.107-1.396.86-1.29 1.68.275 2.102.514 4.334.712 6.634.067.781.72 1.37 1.489 1.37M84.357 19.742a1.497 1.497 0 1 0 2.975-.322 27.592 27.592 0 0 0-1.659-6.909 1.497 1.497 0 1 0-2.794 1.073 24.63 24.63 0 0 1 1.478 6.158M93.016 130.608a1.497 1.497 0 0 0-1.418 1.573c.111 2.157.193 4.41.247 6.695a1.496 1.496 0 0 0 1.494 1.464l.035-.001a1.496 1.496 0 0 0 1.461-1.532 243.538 243.538 0 0 0-.248-6.78 1.508 1.508 0 0 0-1.571-1.419M79.835 38.781c-.047.236-.084.464-.114.68a108.074 108.074 0 0 0-.654 6.19 1.498 1.498 0 0 0 1.493 1.612c.774 0 1.43-.598 1.49-1.384.152-1.998.367-4.022.636-6.016.022-.162.051-.332.086-.509a1.495 1.495 0 1 0-2.937-.573M83.368 34.149c.606 0 1.176-.372 1.401-.973l.243-.65c.766-2.043 1.557-4.154 2.013-5.86.214-.8-.26-1.621-1.058-1.835-.8-.215-1.618.26-1.832 1.06-.418 1.565-1.184 3.608-1.924 5.582l-.244.652a1.499 1.499 0 0 0 1.401 2.024M93.412 144.085h-.002c-.825 0-1.496.67-1.496 1.496-.003 2.172-.03 4.43-.08 6.711a1.496 1.496 0 0 0 1.461 1.532h.035c.81 0 1.476-.649 1.494-1.465.052-2.302.079-4.58.082-6.774 0-.828-.668-1.499-1.494-1.5M81.084 8.63a1.499 1.499 0 0 0 1.213-2.372c-2.45-3.412-4.866-5.157-4.967-5.23a1.494 1.494 0 0 0-2.084.347 1.502 1.502 0 0 0 .342 2.09c.022.014 2.137 1.559 4.28 4.542.292.407.75.624 1.216.624M80.432 60.732a1.497 1.497 0 0 0 1.425-1.565 111.627 111.627 0 0 1-.108-6.648 1.497 1.497 0 1 0-2.992-.042 115.482 115.482 0 0 0 .111 6.827 1.497 1.497 0 0 0 1.564 1.428M81.965 74.119a1.499 1.499 0 0 0 1.248-1.71 131.02 131.02 0 0 1-.858-6.607 1.496 1.496 0 1 0-2.975.309c.227 2.201.522 4.475.876 6.758a1.496 1.496 0 0 0 1.709 1.25M85.818 85.512a190.616 190.616 0 0 1-1.432-6.534 1.497 1.497 0 1 0-2.934.59c.426 2.127.902 4.297 1.454 6.633a1.497 1.497 0 1 0 2.912-.69M89.155 98.53l-.342-1.288c-.451-1.7-.914-3.44-1.376-5.22a1.497 1.497 0 0 0-2.896.753c.463 1.786.927 3.532 1.381 5.238l.342 1.286a1.496 1.496 0 1 0 2.891-.769M47.907 154.615c-.826 0-1.496.67-1.496 1.498v6.74c0 .827.67 1.498 1.496 1.498s1.496-.671 1.496-1.498v-6.74c0-.827-.67-1.498-1.496-1.498M47.907 168.096c-.826 0-1.496.67-1.496 1.498v1.485a1.497 1.497 0 1 0 2.992 0v-1.485c0-.827-.67-1.498-1.496-1.498M47.907 141.134c-.826 0-1.496.671-1.496 1.498v6.74c0 .827.67 1.498 1.496 1.498s1.496-.67 1.496-1.498v-6.74c0-.827-.67-1.498-1.496-1.498"/></g></svg>