<?xml version="1.0" encoding="utf-8"?>
<!-- Generator: Adobe Illustrator 16.0.0, SVG Export Plug-In . SVG Version: 6.00 Build 0)  -->
<!DOCTYPE svg PUBLIC "-//W3C//DTD SVG 1.1//EN" "http://www.w3.org/Graphics/SVG/1.1/DTD/svg11.dtd">
<svg version="1.1" id="圖層_1" xmlns="http://www.w3.org/2000/svg" xmlns:xlink="http://www.w3.org/1999/xlink" x="0px" y="0px"
	 width="322px" height="95px" viewBox="0 0 322 95" enable-background="new 0 0 322 95" xml:space="preserve">
<path fill="#DDB5A5" d="M66.636,34.916l-5.51-5.506c1.677-2.051,2.686-4.666,2.686-7.516C63.811,15.338,58.476,10,51.905,10
	c-6.565,0-11.907,5.338-11.907,11.895c0,6.562,5.342,11.894,11.907,11.894c2.837,0,5.441-0.998,7.488-2.656l5.519,5.508
	C65.149,36.876,65.464,37,65.774,37c0.314,0,0.622-0.124,0.86-0.361C67.118,36.162,67.118,35.393,66.636,34.916z M41.629,21.895
	c0-5.66,4.609-10.264,10.275-10.264c5.67,0,10.274,4.604,10.274,10.264c0,5.664-4.604,10.272-10.274,10.272
	C46.239,32.167,41.629,27.559,41.629,21.895z"/>
<g>
	<path fill="#DDB5A5" d="M201.499,22.682c3.664,0,6.646-2.843,6.646-6.341c0-3.497-2.979-6.341-6.646-6.341
		s-6.646,2.844-6.646,6.341C194.852,19.839,197.834,22.682,201.499,22.682z M201.499,11.506c2.793,0,5.065,2.165,5.065,4.835
		c0,2.661-2.271,4.835-5.065,4.835s-5.065-2.174-5.065-4.835C196.432,13.671,198.704,11.506,201.499,11.506z"/>
	<path fill="#DDB5A5" d="M209.813,27.15c-2.113-2.031-4.912-3.066-8.314-3.066c-3.398,0-6.199,1.035-8.313,3.066
		c-4.201,4.047-4.188,10.574-4.187,10.85l1.581-0.009c-0.003-0.067-0.008-6.192,3.729-9.782c1.809-1.74,4.227-2.619,7.188-2.619
		c2.959,0,5.381,0.879,7.188,2.62c3.734,3.59,3.732,9.714,3.729,9.781L213.999,38C213.999,37.725,214.014,31.197,209.813,27.15z"/>
</g>
<g>
	<path fill="#DDB5A5" d="M168.757,21.55l-4.062-3.799c-0.153-0.151-0.362-0.229-0.569-0.229c-0.196,0-0.403,0.078-0.562,0.229
		c-0.319,0.287-0.319,0.769,0,1.065l2.681,2.514h-7.403c-0.447,0-0.81,0.338-0.81,0.753c0,0.419,0.361,0.753,0.81,0.753h7.403
		l-2.681,2.523c-0.319,0.293-0.319,0.771,0,1.063c0.312,0.292,0.819,0.292,1.131,0l4.062-3.81
		C169.078,22.324,169.078,21.847,168.757,21.55z"/>
	<path fill="#DDB5A5" d="M150.498,22.682c3.664,0,6.645-2.843,6.645-6.341c0-3.497-2.98-6.341-6.645-6.341s-6.645,2.844-6.645,6.341
		C143.853,19.839,146.833,22.682,150.498,22.682z M150.498,11.506c2.794,0,5.066,2.165,5.066,4.835c0,2.661-2.271,4.835-5.066,4.835
		s-5.067-2.174-5.067-4.835C145.431,13.671,147.704,11.506,150.498,11.506z"/>
	<path fill="#DDB5A5" d="M150.496,24.084c-3.402,0-6.198,1.035-8.312,3.066c-4.202,4.047-4.187,10.574-4.186,10.85l1.581-0.009
		c-0.003-0.067-0.006-6.192,3.73-9.782c1.807-1.74,4.224-2.619,7.187-2.619c2.96,0,5.382,0.879,7.189,2.62
		c3.737,3.59,3.734,9.714,3.73,9.781L162.998,38c0.001-0.275,0.018-6.803-4.186-10.85C156.697,25.119,153.899,24.084,150.496,24.084
		z"/>
</g>
<g>
	<path fill="#DDB5A5" d="M117.188,21.33h-7.404l2.681-2.524c0.32-0.292,0.32-0.769,0-1.065c-0.311-0.292-0.821-0.292-1.131,0
		l-4.062,3.81c-0.319,0.292-0.319,0.769,0,1.065l4.062,3.799c0.154,0.151,0.362,0.229,0.57,0.229c0.196,0,0.405-0.078,0.561-0.229
		c0.32-0.287,0.32-0.769,0-1.065l-2.681-2.514h7.404c0.447,0,0.809-0.338,0.809-0.753C117.998,21.664,117.637,21.33,117.188,21.33z"
		/>
	<path fill="#DDB5A5" d="M99.498,22.682c3.664,0,6.645-2.843,6.645-6.341c0-3.497-2.98-6.341-6.645-6.341s-6.645,2.844-6.645,6.341
		C92.853,19.839,95.833,22.682,99.498,22.682z M99.498,11.506c2.794,0,5.066,2.165,5.066,4.835c0,2.661-2.271,4.835-5.066,4.835
		s-5.067-2.174-5.067-4.835C94.431,13.671,96.704,11.506,99.498,11.506z"/>
	<path fill="#DDB5A5" d="M99.496,24.084c-3.402,0-6.198,1.035-8.312,3.066c-4.202,4.047-4.187,10.574-4.186,10.85l1.581-0.009
		c-0.003-0.067-0.006-6.192,3.73-9.782c1.807-1.74,4.224-2.619,7.187-2.619c2.96,0,5.382,0.879,7.189,2.62
		c3.737,3.59,3.734,9.714,3.73,9.781L111.998,38c0.001-0.275,0.016-6.803-4.186-10.85C105.697,25.119,102.899,24.084,99.496,24.084z
		"/>
</g>
<g>
	<path fill="#DDB5A5" d="M256.292,11.565c4.562,0,9.594,5.241,5.726,12.039c-3.871,6.792-12.519,10.837-12.519,10.837l0,0
		c0,0-8.646-4.045-12.519-10.837c-3.869-6.798,1.164-12.039,5.726-12.039c4.565,0,6.793,4.724,6.793,4.724l0,0
		C249.499,16.289,251.727,11.565,256.292,11.565 M256.292,10c-3.235,0-5.476,1.856-6.793,3.436C248.18,11.855,245.941,10,242.706,10
		c-2.942,0-5.875,1.704-7.459,4.342c-1.026,1.718-2.353,5.29,0.34,10.021c4.072,7.148,12.854,11.311,13.228,11.484L249.137,36h0.361
		c0.906,0,9.963-4.706,13.91-11.633c2.691-4.735,1.367-8.308,0.342-10.025C262.167,11.704,259.236,10,256.292,10L256.292,10z"/>
</g>
<g>
	<path fill="#DDB5A5" d="M293.659,17.886c0.452-0.002,0.821-0.337,0.819-0.743c0-0.032,0.002-3.284,1.75-4.85
		c0.604-0.552,1.351-0.817,2.271-0.817s1.664,0.266,2.272,0.817c1.746,1.565,1.748,4.817,1.748,4.85
		c-0.002,0.406,0.362,0.741,0.815,0.743c0.002,0,0.007,0,0.007,0c0.452,0,0.821-0.328,0.823-0.731
		c0.002-0.157,0.006-3.892-2.226-5.899c-0.92-0.835-2.082-1.256-3.441-1.256c-1.361,0-2.521,0.421-3.445,1.255
		c-2.229,2.008-2.227,5.742-2.225,5.899C292.831,17.559,293.266,17.891,293.659,17.886z"/>
	<path fill="#DDB5A5" d="M310.209,20.265l-0.113-0.614h-23.193l-0.113,0.614c-0.422,2.258-2.49,13.61-1.541,15.504
		c0.439,0.879,1.254,2.058,3.223,2.188c0.438,0.027,1.506,0.044,3.266,0.044c2.947,0,6.75-0.043,6.758-0.043
		c0.021,0,3.826,0.043,6.775,0.043c1.764,0,2.83-0.017,3.268-0.044c1.967-0.13,2.779-1.309,3.221-2.188
		C312.704,33.875,310.635,22.522,310.209,20.265z M310.247,35.166c-0.447,0.893-0.963,1.26-1.838,1.318
		c-0.269,0.018-1.029,0.039-3.144,0.039c-2.949,0-6.756-0.039-6.777-0.039c-0.002,0-3.809,0.039-6.756,0.039
		c-2.112,0-2.875-0.021-3.146-0.039c-0.875-0.063-1.391-0.428-1.838-1.318c-0.479-0.958,0.396-7.773,1.549-14.039h20.4
		C309.85,27.393,310.729,34.208,310.247,35.166z"/>
</g>
<path fill="#DDB5A5" d="M19.724,18.556l-3.557-3.558l3.555-3.556c0.348-0.347,0.366-0.89,0.043-1.212
	c-0.325-0.325-0.865-0.303-1.212,0.043l-3.555,3.556l-3.555-3.555c-0.347-0.348-0.89-0.366-1.212-0.043
	c-0.325,0.325-0.304,0.865,0.043,1.212l3.555,3.556l-3.558,3.559c-0.347,0.346-0.365,0.89-0.044,1.21
	c0.326,0.327,0.866,0.306,1.214-0.042l3.557-3.558l3.558,3.557c0.347,0.348,0.89,0.366,1.21,0.044
	C20.091,19.444,20.071,18.903,19.724,18.556z"/>
<g>
	<path fill="#FFFFFF" d="M21.869,68.871c3.498,0,6.343-2.663,6.343-5.936c0-3.273-2.845-5.936-6.343-5.936s-6.342,2.663-6.342,5.936
		C15.527,66.209,18.372,68.871,21.869,68.871z M21.869,58.521c2.601,0,4.717,1.979,4.717,4.414c0,2.434-2.116,4.414-4.717,4.414
		s-4.717-1.98-4.717-4.414C17.152,60.501,19.269,58.521,21.869,58.521z"/>
	<path fill="#FFFFFF" d="M21.866,70.047c-3.229,0-5.886,0.963-7.896,2.86C9.984,76.672,9.997,82.743,10,83l1.626-0.014
		c0-0.057-0.003-5.707,3.505-9.014c1.692-1.597,3.959-2.404,6.735-2.404c2.778,0,5.047,0.81,6.739,2.404
		c3.51,3.31,3.507,8.957,3.507,9.014L33.738,83c0.003-0.257,0.016-6.325-3.971-10.092C27.756,71.01,25.098,70.047,21.866,70.047z"/>
	<path fill="#FFFFFF" d="M40.187,67.303H32.69l2.72-2.547c0.317-0.298,0.317-0.779,0-1.076c-0.318-0.297-0.832-0.297-1.149,0
		l-4.107,3.846c-0.317,0.297-0.317,0.777,0,1.076l4.107,3.842c0.159,0.148,0.367,0.224,0.575,0.224s0.416-0.074,0.575-0.224
		c0.317-0.297,0.317-0.777,0-1.074l-2.72-2.545h7.497c0.449,0,0.813-0.342,0.813-0.762C41,67.643,40.636,67.303,40.187,67.303z"/>
</g>
<g>
	<path fill="#FFFFFF" d="M167.654,64.887c0.002,0,0.004,0,0.005,0c0.456-0.003,0.821-0.336,0.819-0.742
		c0-0.033,0.002-3.285,1.748-4.854c0.61-0.549,1.354-0.814,2.272-0.814s1.662,0.267,2.272,0.814c1.746,1.568,1.748,4.82,1.748,4.854
		c-0.002,0.406,0.363,0.739,0.819,0.742c0.001,0,0.003,0,0.005,0c0.452,0,0.821-0.326,0.824-0.732
		c0.002-0.158,0.005-3.891-2.223-5.899C175.023,57.422,173.863,57,172.5,57s-2.523,0.422-3.447,1.254
		c-2.228,2.01-2.225,5.741-2.223,5.9C166.833,64.561,167.202,64.887,167.654,64.887z"/>
	<path fill="#FFFFFF" d="M184.212,67.266l-0.114-0.615h-23.195l-0.115,0.615c-0.424,2.258-2.492,13.611-1.54,15.506
		c0.441,0.877,1.253,2.056,3.22,2.188c0.437,0.027,1.505,0.042,3.267,0.042c2.947,0,6.748-0.041,6.757-0.041
		c0.018,0,3.825,0.041,6.776,0.041c1.76,0,2.828-0.015,3.266-0.042c1.967-0.132,2.777-1.311,3.22-2.188
		C186.704,80.877,184.637,69.521,184.212,67.266z M184.248,82.166c-0.448,0.893-0.964,1.262-1.838,1.318
		c-0.268,0.02-1.031,0.039-3.145,0.039c-2.949,0-6.754-0.041-6.775-0.041c-0.002,0-3.809,0.041-6.758,0.041
		c-2.111,0-2.875-0.021-3.144-0.039c-0.874-0.059-1.39-0.428-1.838-1.318c-0.481-0.959,0.396-7.773,1.549-14.04h20.398
		C183.852,74.393,184.729,81.207,184.248,82.166z"/>
</g>
<g>
	<path fill="#FFFFFF" d="M116.298,70.658c3.329,0,6.038-2.702,6.038-6.024c0-3.321-2.708-6.022-6.038-6.022
		s-6.037,2.701-6.037,6.022C110.261,67.956,112.969,70.658,116.298,70.658z M116.298,60.154c2.475,0,4.489,2.01,4.489,4.479
		s-2.014,4.48-4.489,4.48c-2.476,0-4.49-2.012-4.49-4.48S113.822,60.154,116.298,60.154z"/>
	<path fill="#FFFFFF" d="M130.79,74.605c2.477,0,4.493-2.013,4.493-4.482c0-2.473-2.017-4.482-4.493-4.482s-4.493,2.012-4.493,4.482
		C126.296,72.594,128.313,74.605,130.79,74.605z M130.79,67.184c1.625,0,2.945,1.318,2.945,2.939s-1.32,2.938-2.945,2.938
		c-1.624,0-2.945-1.316-2.945-2.938S129.166,67.184,130.79,67.184z"/>
	<path fill="#FFFFFF" d="M136.264,77.116c-1.398-1.407-3.241-2.12-5.477-2.12c-2.149,0-3.91,0.689-5.283,1.988
		c-0.457-0.785-1.01-1.545-1.688-2.229c-1.915-1.928-4.444-2.904-7.521-2.904c-3.074,0-5.602,0.978-7.515,2.902
		c-3.795,3.821-3.783,9.982-3.78,10.245l1.548-0.015c0-0.057-0.003-5.793,3.336-9.149c1.611-1.619,3.769-2.438,6.41-2.438
		c2.645,0,4.804,0.82,6.415,2.44c3.341,3.356,3.339,9.091,3.339,9.147L127.595,85c0.002-0.189,0.002-3.461-1.43-6.704l0.086,0.078
		c1.112-1.217,2.639-1.834,4.535-1.834c1.806,0,3.276,0.56,4.372,1.657c2.292,2.303,2.294,6.266,2.294,6.305L139,84.516
		C139.002,84.327,139.01,79.883,136.264,77.116z"/>
	<path fill="#FFFFFF" d="M128.459,60.395h1.794v1.789c0,0.297,0.24,0.535,0.536,0.535s0.536-0.238,0.536-0.535v-1.789h1.794
		c0.297,0,0.537-0.24,0.537-0.535c0-0.297-0.24-0.535-0.537-0.535h-1.794v-1.788c0-0.296-0.24-0.535-0.536-0.535
		s-0.536,0.239-0.536,0.535v1.788h-1.794c-0.296,0-0.536,0.238-0.536,0.535C127.923,60.154,128.164,60.395,128.459,60.395z"/>
</g>
<g>
	<path fill="#FFFFFF" d="M73,68.87c3.536,0,6.413-2.662,6.413-5.937C79.413,59.66,76.536,57,73,57s-6.413,2.661-6.413,5.936
		C66.587,66.209,69.464,68.87,73,68.87z M73,58.521c2.629,0,4.769,1.979,4.769,4.414c0,2.434-2.14,4.414-4.769,4.414
		s-4.769-1.98-4.769-4.414C68.231,60.501,70.371,58.521,73,58.521z"/>
	<path fill="#FFFFFF" d="M72.997,70.046c-3.265,0-5.95,0.963-7.982,2.86C60.984,76.671,60.997,82.742,61,83l1.644-0.014
		c0-0.057-0.003-5.709,3.544-9.016c1.711-1.596,4.003-2.404,6.809-2.404c2.81,0,5.103,0.812,6.814,2.406
		c3.549,3.309,3.546,8.957,3.546,9.014L85,83c0.003-0.258,0.016-6.326-4.015-10.093C78.952,71.009,76.265,70.046,72.997,70.046z"/>
</g>
<g>
	<path fill="#FFFFFF" d="M235.438,65.238c-0.754-2.055-2.203-3.817-4.308-5.237c-2.858-1.931-6.169-2.913-10.237-3.001
		c-0.352,0.037-0.705,0.068-1.058,0.102c-0.778,0.067-1.583,0.141-2.378,0.282c-3.782,0.679-6.824,2.285-9.046,4.774
		c-2.981,3.343-3.218,7.814-0.599,11.392c1.772,2.421,4.326,4.074,7.806,5.058c0.618,0.176,1.255,0.293,1.893,0.408
		c0.411,0.076,0.823,0.15,1.229,0.244c0.519,0.12,0.55,0.127,0.482,0.668c-0.027,0.245-0.065,0.488-0.104,0.732
		c-0.055,0.347-0.105,0.693-0.139,1.04c-0.047,0.493,0.146,0.795,0.315,0.963c0.22,0.218,0.534,0.337,0.886,0.337
		c0.133,0,0.274-0.018,0.418-0.05c0.479-0.112,0.918-0.267,1.305-0.458c2.273-1.123,4.543-2.493,7.138-4.314
		c1.521-1.066,3.46-2.541,4.957-4.486C236.038,71.037,236.521,68.193,235.438,65.238z M232.67,72.852
		c-1.37,1.783-3.188,3.162-4.618,4.166c-2.526,1.771-4.726,3.103-6.922,4.188c-0.147,0.072-0.312,0.141-0.487,0.197
		c0.023-0.18,0.053-0.359,0.08-0.539c0.041-0.26,0.08-0.518,0.109-0.774c0.152-1.251-0.368-1.944-1.693-2.25
		c-0.433-0.101-0.869-0.181-1.308-0.26c-0.583-0.106-1.165-0.212-1.731-0.372c-3.108-0.879-5.379-2.341-6.936-4.469
		c-2.223-3.031-2.021-6.821,0.506-9.656c2.005-2.246,4.652-3.639,8.1-4.258c0.721-0.129,1.451-0.193,2.225-0.264
		c0.363-0.033,0.729-0.063,0.977-0.099c3.604,0.084,6.612,0.974,9.192,2.718c1.835,1.236,3.092,2.758,3.737,4.522
		C234.828,68.23,234.427,70.566,232.67,72.852z"/>
	<rect x="219.792" y="72.796" fill="#FFFFFF" width="1.755" height="1.582"/>
	<path fill="#FFFFFF" d="M220.684,62.839c-1.132,0-2.065,0.295-2.803,0.886c-0.736,0.59-1.152,1.391-1.248,2.398h1.66
		c0.24-1.428,1.044-2.141,2.41-2.141c0.701,0,1.268,0.19,1.697,0.576c0.431,0.383,0.646,0.873,0.646,1.469
		c0,0.306-0.079,0.594-0.237,0.865s-0.564,0.66-1.224,1.166c-0.657,0.504-1.108,0.979-1.353,1.426
		c-0.243,0.447-0.364,1.149-0.364,2.106h1.499c0-0.728,0.078-1.248,0.236-1.562c0.158-0.313,0.588-0.729,1.291-1.254
		c0.701-0.524,1.179-1.006,1.432-1.44s0.38-0.905,0.38-1.41c0-0.896-0.37-1.633-1.11-2.215
		C222.855,63.13,221.887,62.839,220.684,62.839z"/>
</g>
<path fill="#5A524F" d="M272.774,72.688l-3.471-3.467c1.057-1.291,1.691-2.937,1.691-4.73c0-4.131-3.363-7.49-7.497-7.49
	c-4.135,0-7.498,3.359-7.498,7.49c0,4.13,3.363,7.489,7.498,7.489c1.786,0,3.426-0.629,4.715-1.673l3.474,3.468
	c0.149,0.151,0.347,0.226,0.544,0.226s0.394-0.074,0.544-0.226C273.075,73.474,273.075,72.987,272.774,72.688z M257.026,64.49
	c0-3.565,2.903-6.465,6.472-6.465c3.567,0,6.471,2.899,6.471,6.465c0,3.564-2.903,6.465-6.471,6.465
	C259.93,70.955,257.026,68.055,257.026,64.49z"/>
<path fill="#5A524F" d="M302.727,65.556l-3.558-3.558l3.557-3.557c0.347-0.345,0.364-0.889,0.042-1.211
	c-0.325-0.325-0.864-0.303-1.213,0.044L298,60.829l-3.555-3.555c-0.348-0.349-0.891-0.366-1.213-0.044
	c-0.324,0.327-0.304,0.866,0.042,1.214l3.557,3.555l-3.558,3.559c-0.348,0.346-0.365,0.89-0.045,1.209
	c0.326,0.328,0.866,0.308,1.215-0.041L298,63.168l3.559,3.556c0.346,0.349,0.889,0.366,1.209,0.046
	C303.094,66.442,303.072,65.902,302.727,65.556z"/>
</svg>
