<?xml version="1.0" encoding="utf-8"?>
<!-- Generator: Adobe Illustrator 16.0.0, SVG Export Plug-In . SVG Version: 6.00 Build 0)  -->
<!DOCTYPE svg PUBLIC "-//W3C//DTD SVG 1.1//EN" "http://www.w3.org/Graphics/SVG/1.1/DTD/svg11.dtd">
<svg version="1.1" id="圖層_1" xmlns="http://www.w3.org/2000/svg" xmlns:xlink="http://www.w3.org/1999/xlink" x="0px" y="0px"
	 width="167px" height="27px" viewBox="0 0 167 27" enable-background="new 0 0 167 27" xml:space="preserve">
<g>
	<path fill="#59514F" d="M0,0.385h8.63c1.552,0,2.935,0.19,4.148,0.569c1.213,0.38,2.241,0.919,3.083,1.62
		c0.841,0.701,1.483,1.55,1.927,2.546c0.443,0.996,0.666,2.105,0.666,3.326c0,1.223-0.222,2.334-0.666,3.337
		c-0.444,1.003-1.086,1.861-1.927,2.574c-0.842,0.714-1.869,1.264-3.083,1.649s-2.596,0.578-4.148,0.578H3.836v10.028H0V0.385z
		 M3.836,3.201V13.77H8.2c1.004,0,1.905-0.106,2.7-0.318c0.796-0.212,1.468-0.536,2.016-0.974s0.968-0.99,1.262-1.658
		c0.293-0.669,0.44-1.459,0.44-2.373c0-0.912-0.147-1.699-0.44-2.362c-0.294-0.662-0.714-1.205-1.262-1.63
		C12.368,4.03,11.696,3.715,10.9,3.51c-0.795-0.206-1.696-0.309-2.7-0.309H3.836z"/>
	<path fill="#59514F" d="M49.656,19.94H38.658l-2.349,6.673h-3.835L42.18,0.385h3.914l9.765,26.229h-3.835L49.656,19.94z
		 M39.656,17.125h9.002L44.157,4.436L39.656,17.125z"/>
	<path fill="#59514F" d="M72.012,0.385h18.455v2.122L76.259,23.798h15.538l-0.841,2.815H71.895v-2.43L85.652,3.201h-13.64V0.385z"/>
	<path fill="#59514F" d="M108.263,0.385h18.454v2.122L112.51,23.798h15.538l-0.842,2.815h-19.061v-2.43l13.758-20.982h-13.641V0.385
		z"/>
	<path fill="#59514F" d="M143.79,13.499c0-2.069,0.283-3.937,0.852-5.603c0.567-1.664,1.359-3.082,2.377-4.252
		c1.019-1.17,2.237-2.07,3.659-2.7C152.1,0.315,153.665,0,155.375,0c1.695,0,3.259,0.315,4.688,0.944
		c1.428,0.63,2.654,1.53,3.678,2.7c1.025,1.17,1.824,2.588,2.397,4.252C166.712,9.563,167,11.43,167,13.499
		c0,2.083-0.288,3.957-0.862,5.622c-0.573,1.666-1.372,3.083-2.397,4.253c-1.023,1.17-2.25,2.066-3.678,2.689
		C158.634,26.688,157.07,27,155.375,27c-1.71,0-3.275-0.313-4.697-0.937c-1.422-0.623-2.641-1.52-3.659-2.689
		c-1.018-1.17-1.81-2.587-2.377-4.253C144.073,17.456,143.79,15.582,143.79,13.499z M147.626,13.499
		c0,1.788,0.188,3.351,0.566,4.687c0.379,1.338,0.91,2.449,1.596,3.337c0.685,0.888,1.504,1.553,2.455,1.996
		c0.953,0.443,1.997,0.665,3.132,0.665c1.148,0,2.202-0.222,3.16-0.665c0.959-0.443,1.781-1.108,2.467-1.996
		c0.685-0.888,1.216-1.999,1.594-3.337c0.379-1.336,0.568-2.898,0.568-4.687c0-1.786-0.189-3.349-0.568-4.687
		c-0.378-1.337-0.909-2.449-1.594-3.336c-0.686-0.887-1.508-1.552-2.467-1.996c-0.958-0.443-2.012-0.665-3.16-0.665
		c-1.135,0-2.179,0.222-3.132,0.665c-0.951,0.444-1.771,1.109-2.455,1.996c-0.686,0.887-1.217,1.999-1.596,3.336
		C147.814,10.15,147.626,11.713,147.626,13.499z"/>
</g>
</svg>
